<?xml version="1.0" encoding="iso-8859-1"?>
<!-- Generator: Adobe Illustrator 19.0.0, SVG Export Plug-In . SVG Version: 6.00 Build 0)  -->
<svg version="1.1" id="Capa_1" xmlns="http://www.w3.org/2000/svg" xmlns:xlink="http://www.w3.org/1999/xlink" x="0px" y="0px"
	 viewBox="0 0 511.999 511.999" style="enable-background:new 0 0 511.999 511.999;" xml:space="preserve">
<path style="fill:#F18F26;" d="M255.999,71.104h85.332c99.554,0,156.441,112.168,156.441,227.566
	c0,213.329-127.997,213.329-241.773,213.329s-241.773,0-241.773-213.329c0-141.636,85.332-227.566,156.441-227.566L255.999,71.104"
	/>
<path style="fill:#642116;" d="M383.594,346.607c-0.498,9.514-5.006,19.982-13.824,30.278
	c-22.826,26.638-48.156,21.063-57.442-11.662c-17.407,2.759-36.251,4.551-56.334,4.551c-99.554,0-170.663-42.666-170.663-42.666
	c0,38.015,14.435,63.117,35.057,79.984c2.105-4.551,4.907-9.016,9.031-13.141c21.12-21.12,44.159-9.6,51.214,25.599
	c1.095,5.532,1.408,10.425,1.366,15.032c29.183,6.258,57.769,6.301,73.997,6.301c42.666,0,170.663,0,170.663-113.776
	C426.658,327.108,410.715,336.594,383.594,346.607"/>
<path style="fill:#3F7123;" d="M296.858,74.465c0.981,5.973-3.157,10.865-9.201,10.865h-63.316c-6.044,0-10.197-4.892-9.201-10.865
	l10.61-63.6C226.745,4.892,232.519,0,238.564,0h34.872c6.044,0,11.832,4.892,12.814,10.865L296.858,74.465z"/>
<path style="fill:#5C913B;" d="M227.555,85.334c0,0,28.444-71.124,113.776-71.124c71.11,0,99.554,71.11,99.554,71.11L227.555,85.334
	z"/>
<g>
	<path style="fill:#642116;" d="M123.612,157.992c11.278-21.034,29.767-21.034,41.059,0.015l30.762,57.357
		c11.306,21.034-4.352,38.242-34.787,38.242h-33.051c-30.42,0-46.064-17.209-34.787-38.242L123.612,157.992z"/>
	<path style="fill:#642116;" d="M347.345,157.992c11.292-21.034,29.767-21.034,41.059,0.015l30.776,57.357
		c11.292,21.034-4.366,38.242-34.801,38.242h-33.051c-30.407,0-46.064-17.209-34.773-38.242L347.345,157.992z"/>
	<path style="fill:#642116;" d="M273.04,326.565c-8.334,15.517-21.958,15.517-30.307,0l-22.712-42.339
		c-8.334-15.53,3.215-28.231,25.671-28.231h24.391c22.471,0,34.033,12.7,25.685,28.231L273.04,326.565z"/>
</g>
<g>
</g>
<g>
</g>
<g>
</g>
<g>
</g>
<g>
</g>
<g>
</g>
<g>
</g>
<g>
</g>
<g>
</g>
<g>
</g>
<g>
</g>
<g>
</g>
<g>
</g>
<g>
</g>
<g>
</g>
</svg>
