<?xml version="1.0" encoding="iso-8859-1"?>
<!-- Generator: Adobe Illustrator 19.0.0, SVG Export Plug-In . SVG Version: 6.00 Build 0)  -->
<svg version="1.1" id="Layer_1" xmlns="http://www.w3.org/2000/svg" xmlns:xlink="http://www.w3.org/1999/xlink" x="0px" y="0px"
	 viewBox="0 0 511.99 511.99" style="enable-background:new 0 0 511.99 511.99;" xml:space="preserve">
<path style="fill:#F6BB42;" d="M309.307,458.678c0,29.453-23.859,53.312-53.312,53.312s-53.311-23.858-53.311-53.312
	c0-29.452,23.858-53.326,53.311-53.326S309.307,429.225,309.307,458.678z"/>
<path style="fill:#FFCE54;" d="M383.149,170.622c-1.125-25.75-16.266-85.42-127.983-85.42c-111.716,0-126.903,59.67-128.028,85.42
	c-8.234,189.012-52.795,259.244-52.795,259.244c-6.281,9.906-3.359,23.218,6.484,29.593c0,0,14.656,9.484,174.496,9.859
	c159.841,0.359,174.418-9.5,174.418-9.5c9.703-6.562,12.516-20.046,6.234-29.952C435.975,429.866,391.384,359.634,383.149,170.622z"
	/>
<path style="fill:#F6BB42;" d="M222.667,400.32c-55.952-1.344-103.451-5.844-131.341-9.438c-2.859,8.172-5.531,14.969-7.875,20.468
	c32.562,4.438,97.217,10.688,171.793,10.688c81.999,0,147.044-5.516,172.762-8.062c-2.391-5.406-5.156-12.249-8.155-20.64
	c-27.093,2.547-83.437,6.922-153.795,7.344L222.667,400.32z"/>
<path style="fill:#DA4453;" d="M276.588,130.17l15.969-9.969l-36.562,6.375l-36.562-6.375l15.968,9.969l-171.73,29.921l4.625,12.094
	c0.406,1.078,10.515,26.327,50.249,26.327h0.016c32.187,0,75.139-16.608,127.638-49.374l9.796-6.125l9.796,6.125
	c52.5,32.765,95.452,49.374,127.655,49.374l0,0c39.748,0,49.842-25.265,50.264-26.327l4.609-12.094L276.588,130.17z"/>
<path style="fill:#ED5564;" d="M435.679,20.375C426.32,7.047,411.758,0,393.556,0c-23.031,0-65.421,11.562-137.561,65.717
	C183.84,11.563,141.466,0.001,118.451,0.001c-18.219,0-32.781,7.047-42.14,20.375c-25.812,36.718-29.265,95.794-8.796,150.528
	c2.141,5.734,7.297,9.172,13.781,9.172c5.875,0,12.453-2.672,23.343-7.078c21.609-8.766,57.78-23.406,109.654-23.406
	c11.984,0,24.343,0.797,36.702,2.359c1.344,0.281,2.703,0.469,4.062,0.562l0.75,0.078l0.188-0.015l0.188,0.015l0.75-0.078
	c1.359-0.094,2.718-0.281,4.062-0.562c12.359-1.562,24.719-2.359,36.703-2.359c51.874,0,88.03,14.64,109.639,23.406
	c10.906,4.406,17.483,7.078,23.358,7.078l0,0c6.484,0,11.641-3.438,13.781-9.172C464.944,116.17,461.491,57.093,435.679,20.375z"/>
<path style="fill:#F6BB42;" d="M255.995,143.247c-23.515,0-42.655-19.14-42.655-42.655s19.139-42.655,42.655-42.655
	c23.516,0,42.656,19.14,42.656,42.655S279.51,143.247,255.995,143.247z"/>
<path style="fill:#FFCE54;" d="M255.995,79.265c-11.765,0-21.328,9.562-21.328,21.328s9.562,21.328,21.328,21.328
	c11.766,0,21.328-9.562,21.328-21.328S267.76,79.265,255.995,79.265z"/>
<g>
</g>
<g>
</g>
<g>
</g>
<g>
</g>
<g>
</g>
<g>
</g>
<g>
</g>
<g>
</g>
<g>
</g>
<g>
</g>
<g>
</g>
<g>
</g>
<g>
</g>
<g>
</g>
<g>
</g>
</svg>
